<?xml version="1.0" encoding="UTF-8"?>
<svg width="106px" height="112px" viewBox="0 0 106 112" version="1.1" xmlns="http://www.w3.org/2000/svg" xmlns:xlink="http://www.w3.org/1999/xlink">
    <defs>
        <rect id="path-1" x="4.16666667" y="0" width="1.66666667" height="10"></rect>
        <rect id="path-2" x="4.16666667" y="0" width="1.66666667" height="10"></rect>
        <rect id="path-3" x="4.16666667" y="0" width="1.66666667" height="10"></rect>
        <rect id="path-4" x="4.16666667" y="0" width="1.66666667" height="10"></rect>
    </defs>
    <g id="icon" stroke="none" stroke-width="1" fill="none" fill-rule="evenodd">
        <g id="4-copy-4" transform="translate(-459.000000, -379.000000)">
            <g id="Group-4" transform="translate(460.000000, 375.000000)">
                <g id="Group">
                    <polygon id="Triangle" fill="#FFB92E" transform="translate(19.989338, 10.927634) rotate(-46.000000) translate(-19.989338, -10.927634) " points="19.9893376 1.92763404 26.4893376 19.927634 13.4893376 19.927634"></polygon>
                    <polygon id="Triangle-Copy" fill="#FFB92E" transform="translate(11.865697, 20.598675) rotate(-66.000000) translate(-11.865697, -20.598675) " points="11.8656973 11.5986753 18.3656973 29.5986753 5.3656973 29.5986753"></polygon>
                    <polygon id="Triangle-Copy-2" fill="#FFB92E" transform="translate(83.960155, 10.960155) rotate(-315.000000) translate(-83.960155, -10.960155) " points="83.9601551 1.96015511 90.4601551 19.9601551 77.4601551 19.9601551"></polygon>
                    <polygon id="Triangle-Copy-3" fill="#FFB92E" transform="translate(91.576854, 21.095409) rotate(-298.000000) translate(-91.576854, -21.095409) " points="91.5768543 12.095409 98.0768543 30.095409 85.0768543 30.095409"></polygon>
                    <path d="M88,75.5 L88,104 C88,108.97 83.97,113 79,113 C74.03,113 70,108.97 70,104 L69.78,104 C69.92,104.64 70,105.31 70,106 C70,110.97 65.97,115 61,115 C56.03,115 52,110.97 52,106 C52,105.31 52.08,104.64 52.22,104 L51.78,104 C50.87,108.01 47.28,111 43,111 C38.72,111 35.13,108.01 34.22,104 L34,104 C34,108.97 29.97,113 25,113 C20.03,113 16,108.97 16,104 L16,75.49 C14.57,78.17 11.75,80 8.5,80 C3.81,80 0,76.19 0,71.5 C0,67.28 3.08,63.78 7.11,63.12 C7.11,63.12 7.14,63.12 7.2,63.11 C7.26,63.11 7.34,63.1 7.45,63.07 C7.47,63.07 7.48,63.07 7.5,63.06 C9.1,62.71 15.13,60.19 16,42 C16,22.12 32.12,6 52,6 C71.88,6 88,22.12 88,42 L88,49.12 C88,59.5 93.85,62.28 95.55,62.86 L96,63 C100.69,63 104,66.81 104,71.5 C104,76.19 100.19,80 95.5,80 C92.25,80 89.43,78.18 88,75.5" id="Fill-1" stroke="#6CBACF" stroke-width="2" fill="#6CBACF" stroke-linecap="round" stroke-linejoin="round"></path>
                </g>
                <g id="Group-2" transform="translate(29.000000, 27.000000)" stroke="#FFFFFF">
                    <circle id="Oval-2" cx="9.5" cy="9.5" r="9.5"></circle>
                </g>
                <circle id="Oval-3" fill="#FFFFFF" cx="39" cy="37" r="7"></circle>
                <circle id="Oval-3-Copy" fill="#FFFFFF" cx="64" cy="37" r="7"></circle>
                <g id="Group-2-Copy" transform="translate(55.000000, 27.000000)" stroke="#FFFFFF">
                    <circle id="Oval-2" cx="9.5" cy="9.5" r="9.5"></circle>
                </g>
                <g id="Group-3" transform="translate(64.071068, 37.071068) rotate(-315.000000) translate(-64.071068, -37.071068) translate(59.071068, 32.071068)">
                    <g id="Rectangle">
                        <use fill="#FEBA31" fill-rule="evenodd" xlink:href="#path-1"></use>
                        <rect stroke="#FFB92E" stroke-width="0.8" x="4.56666667" y="0.4" width="1" height="9.2"></rect>
                    </g>
                    <g id="Rectangle-Copy-2" transform="translate(5.000000, 5.000000) rotate(-90.000000) translate(-5.000000, -5.000000) ">
                        <use fill="#FEBA31" fill-rule="evenodd" xlink:href="#path-2"></use>
                        <rect stroke="#FFB92E" stroke-width="0.8" x="4.56666667" y="0.4" width="1" height="9.2"></rect>
                    </g>
                </g>
                <g id="Group-3-Copy" transform="translate(39.071068, 37.071068) rotate(-315.000000) translate(-39.071068, -37.071068) translate(34.071068, 32.071068)">
                    <g id="Rectangle">
                        <use fill="#FEBA31" fill-rule="evenodd" xlink:href="#path-3"></use>
                        <rect stroke="#FFB92E" stroke-width="0.8" x="4.56666667" y="0.4" width="1" height="9.2"></rect>
                    </g>
                    <g id="Rectangle-Copy-2" transform="translate(5.000000, 5.000000) rotate(-90.000000) translate(-5.000000, -5.000000) ">
                        <use fill="#FEBA31" fill-rule="evenodd" xlink:href="#path-4"></use>
                        <rect stroke="#FFB92E" stroke-width="0.8" x="4.56666667" y="0.4" width="1" height="9.2"></rect>
                    </g>
                </g>
                <ellipse id="Oval" stroke="#FFFFFF" stroke-width="2" fill="#FFFFFF" cx="51.5" cy="51" rx="3.5" ry="3"></ellipse>
                <path d="M50.4121094,65.3056641 C55.0917969,58.5133464 60.7190755,55.5611979 67.2939453,56.4492188" id="Path-7" stroke="#FFB92E"></path>
            </g>
        </g>
    </g>
</svg>